<svg id="SvgjsSvg1006" width="1191" height="428.921875" xmlns="http://www.w3.org/2000/svg" version="1.1" xmlns:xlink="http://www.w3.org/1999/xlink" xmlns:svgjs="http://svgjs.com/svgjs"><defs id="SvgjsDefs1007"><marker id="SvgjsMarker1125" markerWidth="16" markerHeight="12" refX="16" refY="6" viewBox="0 0 16 12" orient="auto" markerUnits="userSpaceOnUse" stroke-dasharray="0,0"><path id="SvgjsPath1126" d="M0,2 L14,6 L0,11 L0,2" fill="#323232" stroke="#323232" stroke-width="2"></path></marker><marker id="SvgjsMarker1129" markerWidth="16" markerHeight="12" refX="16" refY="6" viewBox="0 0 16 12" orient="auto" markerUnits="userSpaceOnUse" stroke-dasharray="0,0"><path id="SvgjsPath1130" d="M0,2 L14,6 L0,11 L0,2" fill="#323232" stroke="#323232" stroke-width="2"></path></marker><marker id="SvgjsMarker1133" markerWidth="16" markerHeight="12" refX="16" refY="6" viewBox="0 0 16 12" orient="auto" markerUnits="userSpaceOnUse" stroke-dasharray="0,0"><path id="SvgjsPath1134" d="M0,2 L14,6 L0,11 L0,2" fill="#323232" stroke="#323232" stroke-width="2"></path></marker><marker id="SvgjsMarker1137" markerWidth="16" markerHeight="12" refX="16" refY="6" viewBox="0 0 16 12" orient="auto" markerUnits="userSpaceOnUse" stroke-dasharray="0,0"><path id="SvgjsPath1138" d="M0,2 L14,6 L0,11 L0,2" fill="#323232" stroke="#323232" stroke-width="2"></path></marker><marker id="SvgjsMarker1141" markerWidth="16" markerHeight="12" refX="16" refY="6" viewBox="0 0 16 12" orient="auto" markerUnits="userSpaceOnUse" stroke-dasharray="0,0"><path id="SvgjsPath1142" d="M0,2 L14,6 L0,11 L0,2" fill="#323232" stroke="#323232" stroke-width="2"></path></marker><marker id="SvgjsMarker1145" markerWidth="16" markerHeight="12" refX="16" refY="6" viewBox="0 0 16 12" orient="auto" markerUnits="userSpaceOnUse" stroke-dasharray="0,0"><path id="SvgjsPath1146" d="M0,2 L14,6 L0,11 L0,2" fill="#323232" stroke="#323232" stroke-width="2"></path></marker><marker id="SvgjsMarker1149" markerWidth="16" markerHeight="12" refX="16" refY="6" viewBox="0 0 16 12" orient="auto" markerUnits="userSpaceOnUse" stroke-dasharray="0,0"><path id="SvgjsPath1150" d="M0,2 L14,6 L0,11 L0,2" fill="#323232" stroke="#323232" stroke-width="2"></path></marker><marker id="SvgjsMarker1153" markerWidth="16" markerHeight="12" refX="16" refY="6" viewBox="0 0 16 12" orient="auto" markerUnits="userSpaceOnUse" stroke-dasharray="0,0"><path id="SvgjsPath1154" d="M0,2 L14,6 L0,11 L0,2" fill="#323232" stroke="#323232" stroke-width="2"></path></marker><marker id="SvgjsMarker1157" markerWidth="16" markerHeight="12" refX="16" refY="6" viewBox="0 0 16 12" orient="auto" markerUnits="userSpaceOnUse" stroke-dasharray="0,0"><path id="SvgjsPath1158" d="M0,2 L14,6 L0,11 L0,2" fill="#323232" stroke="#323232" stroke-width="2"></path></marker><marker id="SvgjsMarker1161" markerWidth="16" markerHeight="12" refX="16" refY="6" viewBox="0 0 16 12" orient="auto" markerUnits="userSpaceOnUse" stroke-dasharray="0,0"><path id="SvgjsPath1162" d="M0,2 L14,6 L0,11 L0,2" fill="#323232" stroke="#323232" stroke-width="2"></path></marker><marker id="SvgjsMarker1165" markerWidth="16" markerHeight="12" refX="16" refY="6" viewBox="0 0 16 12" orient="auto" markerUnits="userSpaceOnUse" stroke-dasharray="0,0"><path id="SvgjsPath1166" d="M0,2 L14,6 L0,11 L0,2" fill="#323232" stroke="#323232" stroke-width="2"></path></marker><marker id="SvgjsMarker1169" markerWidth="16" markerHeight="12" refX="16" refY="6" viewBox="0 0 16 12" orient="auto" markerUnits="userSpaceOnUse" stroke-dasharray="0,0"><path id="SvgjsPath1170" d="M0,2 L14,6 L0,11 L0,2" fill="#323232" stroke="#323232" stroke-width="2"></path></marker></defs><g id="SvgjsG1008" transform="translate(25,189.921875)"><path id="SvgjsPath1009" d="M 0 0L 99 0L 99 48L 0 48Z" stroke="rgba(50,50,50,1)" stroke-width="2" fill-opacity="1" fill="#ffffff"></path><g id="SvgjsG1010"><text id="SvgjsText1011" font-family="微软雅黑" text-anchor="middle" font-size="21px" width="79px" fill="#323232" font-weight="400" align="middle" anchor="middle" family="微软雅黑" size="21px" weight="400" font-style="" opacity="1" y="5.85" transform="rotate(0)"><tspan id="SvgjsTspan1012" dy="26" x="49.5"><tspan id="SvgjsTspan1013" style="text-decoration:;">LeNet</tspan></tspan></text></g></g><g id="SvgjsG1014" transform="translate(173,189.921875)"><path id="SvgjsPath1015" d="M 0 0L 105 0L 105 48L 0 48Z" stroke="rgba(50,50,50,1)" stroke-width="2" fill-opacity="1" fill="#ffffff"></path><g id="SvgjsG1016"><text id="SvgjsText1017" font-family="微软雅黑" text-anchor="middle" font-size="21px" width="85px" fill="#323232" font-weight="400" align="middle" anchor="middle" family="微软雅黑" size="21px" weight="400" font-style="" opacity="1" y="5.85" transform="rotate(0)"><tspan id="SvgjsTspan1018" dy="26" x="52.5"><tspan id="SvgjsTspan1019" style="text-decoration:;">AlexNet</tspan></tspan></text></g></g><g id="SvgjsG1020" transform="translate(335.5,66.921875)"><path id="SvgjsPath1021" d="M 0 0L 99 0L 99 48L 0 48Z" stroke="rgba(50,50,50,1)" stroke-width="2" fill-opacity="1" fill="#ffffff"></path><g id="SvgjsG1022"><text id="SvgjsText1023" font-family="微软雅黑" text-anchor="middle" font-size="21px" width="79px" fill="#323232" font-weight="400" align="middle" anchor="middle" family="微软雅黑" size="21px" weight="400" font-style="" opacity="1" y="5.85" transform="rotate(0)"><tspan id="SvgjsTspan1024" dy="26" x="49.5"><tspan id="SvgjsTspan1025" style="text-decoration:;">VGG16</tspan></tspan></text></g></g><g id="SvgjsG1026" transform="translate(499.5,66.921875)"><path id="SvgjsPath1027" d="M 0 0L 99 0L 99 48L 0 48Z" stroke="rgba(50,50,50,1)" stroke-width="2" fill-opacity="1" fill="#ffffff"></path><g id="SvgjsG1028"><text id="SvgjsText1029" font-family="微软雅黑" text-anchor="middle" font-size="21px" width="79px" fill="#323232" font-weight="400" align="middle" anchor="middle" family="微软雅黑" size="21px" weight="400" font-style="" opacity="1" y="5.85" transform="rotate(0)"><tspan id="SvgjsTspan1030" dy="26" x="49.5"><tspan id="SvgjsTspan1031" style="text-decoration:;">VGG19</tspan></tspan></text></g></g><g id="SvgjsG1032" transform="translate(655.5,66.921875)"><path id="SvgjsPath1033" d="M 0 0L 123 0L 123 48L 0 48Z" stroke="rgba(50,50,50,1)" stroke-width="2" fill-opacity="1" fill="#ffffff"></path><g id="SvgjsG1034"><text id="SvgjsText1035" font-family="微软雅黑" text-anchor="middle" font-size="21px" width="103px" fill="#323232" font-weight="400" align="middle" anchor="middle" family="微软雅黑" size="21px" weight="400" font-style="" opacity="1" y="5.85" transform="rotate(0)"><tspan id="SvgjsTspan1036" dy="26" x="61.5"><tspan id="SvgjsTspan1037" style="text-decoration:;">MSRANet</tspan></tspan></text></g></g><g id="SvgjsG1038" transform="translate(335.5,162.921875)"><path id="SvgjsPath1039" d="M 0 0L 99 0L 99 48L 0 48Z" stroke="rgba(50,50,50,1)" stroke-width="2" fill-opacity="1" fill="#ffffff"></path><g id="SvgjsG1040"><text id="SvgjsText1041" font-family="微软雅黑" text-anchor="middle" font-size="21px" width="79px" fill="#323232" font-weight="400" align="middle" anchor="middle" family="微软雅黑" size="21px" weight="400" font-style="" opacity="1" y="5.85" transform="rotate(0)"><tspan id="SvgjsTspan1042" dy="26" x="49.5"><tspan id="SvgjsTspan1043" style="text-decoration:;">NIN</tspan></tspan></text></g></g><g id="SvgjsG1044" transform="translate(468,162.921875)"><path id="SvgjsPath1045" d="M 0 0L 128 0L 128 48L 0 48Z" stroke="rgba(50,50,50,1)" stroke-width="2" fill-opacity="1" fill="#ffffff"></path><g id="SvgjsG1046"><text id="SvgjsText1047" font-family="微软雅黑" text-anchor="middle" font-size="19px" width="108px" fill="#323232" font-weight="400" align="middle" anchor="middle" family="微软雅黑" size="19px" weight="400" font-style="" opacity="1" y="9.15" transform="rotate(0)"><tspan id="SvgjsTspan1048" dy="23" x="64"><tspan id="SvgjsTspan1049" style="text-decoration:;">GoogLeNet</tspan></tspan></text></g></g><g id="SvgjsG1050" transform="translate(634,162.921875)"><path id="SvgjsPath1051" d="M 0 0L 143 0L 143 48L 0 48Z" stroke="rgba(50,50,50,1)" stroke-width="2" fill-opacity="1" fill="#ffffff"></path><g id="SvgjsG1052"><text id="SvgjsText1053" font-family="微软雅黑" text-anchor="middle" font-size="19px" width="123px" fill="#323232" font-weight="400" align="middle" anchor="middle" family="微软雅黑" size="19px" weight="400" font-style="" opacity="1" y="-2.85" transform="rotate(0)"><tspan id="SvgjsTspan1054" dy="23" x="71.5"><tspan id="SvgjsTspan1055" style="text-decoration:;">Inception V3</tspan></tspan><tspan id="SvgjsTspan1056" dy="23" x="71.5"><tspan id="SvgjsTspan1057" style="text-decoration:;">Inception V4</tspan></tspan></text></g></g><g id="SvgjsG1058" transform="translate(335.5,261.921875)"><path id="SvgjsPath1059" d="M 0 0L 99 0L 99 48L 0 48Z" stroke="rgba(50,50,50,1)" stroke-width="2" fill-opacity="1" fill="#ffffff"></path><g id="SvgjsG1060"><text id="SvgjsText1061" font-family="微软雅黑" text-anchor="middle" font-size="19px" width="79px" fill="#323232" font-weight="400" align="middle" anchor="middle" family="微软雅黑" size="19px" weight="400" font-style="" opacity="1" y="-2.85" transform="rotate(0)"><tspan id="SvgjsTspan1062" dy="23" x="49.5"><tspan id="SvgjsTspan1063" style="text-decoration:;">SPP-Net</tspan></tspan><tspan id="SvgjsTspan1064" dy="23" x="49.5"><tspan id="SvgjsTspan1065" style="text-decoration:;">R-CNN</tspan></tspan></text></g></g><g id="SvgjsG1066" transform="translate(485,261.921875)"><path id="SvgjsPath1067" d="M 0 0L 128 0L 128 48L 0 48Z" stroke="rgba(50,50,50,1)" stroke-width="2" fill-opacity="1" fill="#ffffff"></path><g id="SvgjsG1068"><text id="SvgjsText1069" font-family="微软雅黑" text-anchor="middle" font-size="19px" width="108px" fill="#323232" font-weight="400" align="middle" anchor="middle" family="微软雅黑" size="19px" weight="400" font-style="" opacity="1" y="9.15" transform="rotate(0)"><tspan id="SvgjsTspan1070" dy="23" x="64"><tspan id="SvgjsTspan1071" style="text-decoration:;">Fast R-CNN</tspan></tspan></text></g></g><g id="SvgjsG1072" transform="translate(655.5,261.921875)"><path id="SvgjsPath1073" d="M 0 0L 166.5 0L 166.5 48L 0 48Z" stroke="rgba(50,50,50,1)" stroke-width="2" fill-opacity="1" fill="#ffffff"></path><g id="SvgjsG1074"><text id="SvgjsText1075" font-family="微软雅黑" text-anchor="middle" font-size="19px" width="147px" fill="#323232" font-weight="400" align="middle" anchor="middle" family="微软雅黑" size="19px" weight="400" font-style="" opacity="1" y="9.15" transform="rotate(0)"><tspan id="SvgjsTspan1076" dy="23" x="83.5"><tspan id="SvgjsTspan1077" style="text-decoration:;">Faster R-CNN</tspan></tspan></text></g></g><g id="SvgjsG1078" transform="translate(326,355.921875)"><path id="SvgjsPath1079" d="M 0 0L 118 0L 118 48L 0 48Z" stroke="rgba(50,50,50,1)" stroke-width="2" fill-opacity="1" fill="#ffffff"></path><g id="SvgjsG1080"><text id="SvgjsText1081" font-family="微软雅黑" text-anchor="middle" font-size="19px" width="98px" fill="#323232" font-weight="400" align="middle" anchor="middle" family="微软雅黑" size="19px" weight="400" font-style="" opacity="1" y="-2.85" transform="rotate(0)"><tspan id="SvgjsTspan1082" dy="23" x="59"><tspan id="SvgjsTspan1083" style="text-decoration:;">Inception </tspan></tspan><tspan id="SvgjsTspan1084" dy="23" x="59"><tspan id="SvgjsTspan1085" style="text-decoration:;">V2</tspan></tspan></text></g></g><g id="SvgjsG1086" transform="translate(482.5,355.921875)"><path id="SvgjsPath1087" d="M 0 0L 99 0L 99 48L 0 48Z" stroke="rgba(50,50,50,1)" stroke-width="2" fill-opacity="1" fill="#ffffff"></path><g id="SvgjsG1088"><text id="SvgjsText1089" font-family="微软雅黑" text-anchor="middle" font-size="21px" width="79px" fill="#323232" font-weight="400" align="middle" anchor="middle" family="微软雅黑" size="21px" weight="400" font-style="" opacity="1" y="5.85" transform="rotate(0)"><tspan id="SvgjsTspan1090" dy="26" x="49.5"><tspan id="SvgjsTspan1091" style="text-decoration:;">FCN</tspan></tspan></text></g></g><g id="SvgjsG1092" transform="translate(618,355.921875)"><path id="SvgjsPath1093" d="M 0 0L 99 0L 99 48L 0 48Z" stroke="rgba(50,50,50,1)" stroke-width="2" fill-opacity="1" fill="#ffffff"></path><g id="SvgjsG1094"><text id="SvgjsText1095" font-family="微软雅黑" text-anchor="middle" font-size="21px" width="79px" fill="#323232" font-weight="400" align="middle" anchor="middle" family="微软雅黑" size="21px" weight="400" font-style="" opacity="1" y="5.85" transform="rotate(0)"><tspan id="SvgjsTspan1096" dy="26" x="49.5"><tspan id="SvgjsTspan1097" style="text-decoration:;">STNet</tspan></tspan></text></g></g><g id="SvgjsG1098" transform="translate(739,355.921875)"><path id="SvgjsPath1099" d="M 0 0L 143 0L 143 48L 0 48Z" stroke="rgba(50,50,50,1)" stroke-width="2" fill-opacity="1" fill="#ffffff"></path><g id="SvgjsG1100"><text id="SvgjsText1101" font-family="微软雅黑" text-anchor="middle" font-size="18px" width="123px" fill="#323232" font-weight="400" align="middle" anchor="middle" family="微软雅黑" size="18px" weight="400" font-style="" opacity="1" y="-1.6999999999999997" transform="rotate(0)"><tspan id="SvgjsTspan1102" dy="22" x="71.5"><tspan id="SvgjsTspan1103" style="text-decoration:;">CNN+RNN</tspan></tspan><tspan id="SvgjsTspan1104" dy="22" x="71.5"><tspan id="SvgjsTspan1105" style="text-decoration:;">LSTM</tspan></tspan></text></g></g><g id="SvgjsG1106" transform="translate(784,71.421875)"><path id="SvgjsPath1107" d="M 0 115Q 9 115 9 106L 9 66.5Q 9 57.5 22 57.5Q 9 57.5 9 48.5L 9 9Q 9 0 0 0" stroke="rgba(50,50,50,1)" stroke-width="2" fill="none"></path><path id="SvgjsPath1108" d="M 0 0L 99 0L 99 115L 0 115Z" stroke="none" fill="none"></path><g id="SvgjsG1109"><text id="SvgjsText1110" font-family="微软雅黑" text-anchor="start" font-size="13px" width="72px" fill="#323232" font-weight="400" align="middle" anchor="start" family="微软雅黑" size="13px" weight="400" font-style="" opacity="1" y="47.55" transform="rotate(0)"></text></g></g><g id="SvgjsG1111" transform="translate(822,104.921875)"><path id="SvgjsPath1112" d="M 0 0L 105 0L 105 48L 0 48Z" stroke="rgba(50,50,50,1)" stroke-width="2" fill-opacity="1" fill="#ffffff"></path><g id="SvgjsG1113"><text id="SvgjsText1114" font-family="微软雅黑" text-anchor="middle" font-size="21px" width="85px" fill="#323232" font-weight="400" align="middle" anchor="middle" family="微软雅黑" size="21px" weight="400" font-style="" opacity="1" y="5.85" transform="rotate(0)"><tspan id="SvgjsTspan1115" dy="26" x="52.5"><tspan id="SvgjsTspan1116" style="text-decoration:;">ResNet</tspan></tspan></text></g></g><g id="SvgjsG1117" transform="translate(979,104.421875)"><path id="SvgjsPath1118" d="M 0 0L 187 0L 187 48L 0 48Z" stroke="rgba(50,50,50,1)" stroke-width="2" fill-opacity="1" fill="#ffffff"></path><g id="SvgjsG1119"><text id="SvgjsText1120" font-family="微软雅黑" text-anchor="middle" font-size="19px" width="167px" fill="#323232" font-weight="400" align="middle" anchor="middle" family="微软雅黑" size="19px" weight="400" font-style="" opacity="1" y="9.15" transform="rotate(0)"><tspan id="SvgjsTspan1121" dy="23" x="93.5"><tspan id="SvgjsTspan1122" style="text-decoration:;">Inception ResNet</tspan></tspan></text></g></g><g id="SvgjsG1123"><path id="SvgjsPath1124" d="M122 213.921875L147.5 213.921875L147.5 213.921875L173 213.921875" stroke="#323232" stroke-width="2" fill="none" marker-end="url(#SvgjsMarker1125)"></path></g><g id="SvgjsG1127"><path id="SvgjsPath1128" d="M434.5 90.921875L465 90.921875L465 90.921875L499.5 90.921875" stroke="#323232" stroke-width="2" fill="none" marker-end="url(#SvgjsMarker1129)"></path></g><g id="SvgjsG1131"><path id="SvgjsPath1132" d="M598.5 90.921875L626.25 90.921875L626.25 90.921875L655.5 90.921875" stroke="#323232" stroke-width="2" fill="none" marker-end="url(#SvgjsMarker1133)"></path></g><g id="SvgjsG1135"><path id="SvgjsPath1136" d="M434.5 186.921875L449 186.921875L449 186.921875L468 186.921875" stroke="#323232" stroke-width="2" fill="none" marker-end="url(#SvgjsMarker1137)"></path></g><g id="SvgjsG1139"><path id="SvgjsPath1140" d="M596 186.921875L614.5 186.921875L614.5 186.921875L634 186.921875" stroke="#323232" stroke-width="2" fill="none" marker-end="url(#SvgjsMarker1141)"></path></g><g id="SvgjsG1143"><path id="SvgjsPath1144" d="M434.5 285.921875L457.5 285.921875L457.5 285.921875L485 285.921875" stroke="#323232" stroke-width="2" fill="none" marker-end="url(#SvgjsMarker1145)"></path></g><g id="SvgjsG1147"><path id="SvgjsPath1148" d="M613 285.921875L633.75 285.921875L633.75 285.921875L655.5 285.921875" stroke="#323232" stroke-width="2" fill="none" marker-end="url(#SvgjsMarker1149)"></path></g><g id="SvgjsG1151"><path id="SvgjsPath1152" d="M927 128.421875L952.5 128.421875L952.5 128.421875L979 128.421875" stroke="#323232" stroke-width="2" fill="none" marker-end="url(#SvgjsMarker1153)"></path></g><g id="SvgjsG1155"><path id="SvgjsPath1156" d="M305.44444444444446 184.76138117283952L305.44444444444446 90.921875L335.5 90.921875" stroke="#323232" stroke-width="2" fill="none" marker-end="url(#SvgjsMarker1157)"></path></g><g id="SvgjsG1159"><path id="SvgjsPath1160" d="M278 213.921875L305 213.921875L305 186.921875L335.5 186.921875" stroke="#323232" stroke-width="2" fill="none" marker-end="url(#SvgjsMarker1161)"></path></g><g id="SvgjsG1163"><path id="SvgjsPath1164" d="M306 213.921875L306 379.921875L326 379.921875" stroke="#323232" stroke-width="2" fill="none" marker-end="url(#SvgjsMarker1165)"></path></g><g id="SvgjsG1167"><path id="SvgjsPath1168" d="M278 213.921875L305 213.921875L305 285.921875L335.5 285.921875" stroke="#323232" stroke-width="2" fill="none" marker-end="url(#SvgjsMarker1169)"></path></g><g id="SvgjsG1171" transform="translate(332.5,25.008294753086417)"><path id="SvgjsPath1172" d="M 0 0L 105 0L 105 48L 0 48Z" stroke="none" fill="none"></path><g id="SvgjsG1173"><text id="SvgjsText1174" font-family="Tahoma" text-anchor="middle" font-size="21px" width="105px" fill="#323232" font-weight="400" align="middle" anchor="middle" family="Tahoma" size="21px" weight="400" font-style="" opacity="1" y="5.85" transform="rotate(0)"><tspan id="SvgjsTspan1175" dy="26" x="52.5"><tspan id="SvgjsTspan1176" style="text-decoration:;">网络加深</tspan></tspan></text></g></g><g id="SvgjsG1177" transform="translate(318.00000000000006,128.58854166666666)"><path id="SvgjsPath1178" d="M 0 0L 194 0L 194 31.234567901234612L 0 31.234567901234612Z" stroke="none" fill="none"></path><g id="SvgjsG1179"><text id="SvgjsText1180" font-family="Tahoma" text-anchor="middle" font-size="20px" width="194px" fill="#323232" font-weight="400" align="middle" anchor="middle" family="Tahoma" size="20px" weight="400" font-style="" opacity="1" y="0.11728395061730623" transform="rotate(0)"><tspan id="SvgjsTspan1181" dy="25" x="97"><tspan id="SvgjsTspan1182" style="text-decoration:;">增加卷积模块功能</tspan></tspan></text></g></g><g id="SvgjsG1183" transform="translate(327.91358024691374,217.23051697530866)"><path id="SvgjsPath1184" d="M 0 0L 220 0L 220 48L 0 48Z" stroke="none" fill="none"></path><g id="SvgjsG1185"><text id="SvgjsText1186" font-family="Tahoma" text-anchor="middle" font-size="21px" width="220px" fill="#323232" font-weight="400" align="middle" anchor="middle" family="Tahoma" size="21px" weight="400" font-style="" opacity="1" y="5.85" transform="rotate(0)"><tspan id="SvgjsTspan1187" dy="26" x="110"><tspan id="SvgjsTspan1188" style="text-decoration:;">从分类任务到检测任务</tspan></tspan></text></g></g><g id="SvgjsG1189" transform="translate(321.49999999999994,318.34162808641986)"><path id="SvgjsPath1190" d="M 0 0L 187 0L 187 37L 0 37Z" stroke="none" fill="none"></path><g id="SvgjsG1191"><text id="SvgjsText1192" font-family="Tahoma" text-anchor="middle" font-size="21px" width="187px" fill="#323232" font-weight="400" align="middle" anchor="middle" family="Tahoma" size="21px" weight="400" font-style="" opacity="1" y="0.3500000000000001" transform="rotate(0)"><tspan id="SvgjsTspan1193" dy="26" x="93.5"><tspan id="SvgjsTspan1194" style="text-decoration:;">增加新的功能单元</tspan></tspan></text></g></g><g id="SvgjsG1195" transform="translate(816.4320987654322,61.921875)"><path id="SvgjsPath1196" d="M 0 0L 194 0L 194 37L 0 37Z" stroke="none" fill="none"></path><g id="SvgjsG1197"><text id="SvgjsText1198" font-family="Tahoma" text-anchor="middle" font-size="21px" width="194px" fill="#323232" font-weight="400" align="middle" anchor="middle" family="Tahoma" size="21px" weight="400" font-style="" opacity="1" y="0.3500000000000001" transform="rotate(0)"><tspan id="SvgjsTspan1199" dy="26" x="97"><tspan id="SvgjsTspan1200" style="text-decoration:;">两者结合，网络加深</tspan></tspan></text></g></g><g id="SvgjsG1201" transform="translate(157.66666666666714,126.65438528806584)"><path id="SvgjsPath1202" d="M 0 0L 99 0L 99 63.333333333333314L 0 63.333333333333314Z" stroke="none" fill="none"></path><g id="SvgjsG1203"><text id="SvgjsText1204" font-family="Tahoma" text-anchor="middle" font-size="20px" width="99px" fill="#323232" font-weight="400" align="middle" anchor="middle" family="Tahoma" size="20px" weight="400" font-style="" opacity="1" y="3.666666666666657" transform="rotate(0)"><tspan id="SvgjsTspan1205" dy="25" x="49.5"><tspan id="SvgjsTspan1206" style="text-decoration:;">引入</tspan><tspan id="SvgjsTspan1207" style="text-decoration:;font-size: inherit;">ReLU</tspan></tspan><tspan id="SvgjsTspan1208" dy="25" x="49.5"><tspan id="SvgjsTspan1209" style="text-decoration:;font-size: inherit;">和Dropout</tspan></tspan></text></g></g></svg>